<svg width="88" height="88" viewBox="0 0 88 88" fill="none" xmlns="http://www.w3.org/2000/svg">
<path d="M42.3355 37.2078C41.7652 37.1087 40.9965 37.0591 40.0294 37.0591C39.4095 37.2574 38.9879 37.4433 38.7648 37.6168C38.2936 37.7655 37.6985 37.8398 36.9794 37.8398C36.2603 37.8398 35.2312 37.4929 33.8922 36.7989C32.7515 36.3031 31.5613 35.5596 30.3214 34.5682C29.0568 33.7007 27.7302 32.387 26.3415 30.6273C25.8704 29.8837 25.3993 29.3136 24.9281 28.9171V35.0143C24.8041 36.5262 24.3702 37.654 23.6263 38.3975C23.0312 39.0915 22.4608 39.4633 21.9153 39.5129L21.0598 40.591C20.787 40.8637 20.4275 41 19.9812 41C19.386 40.8265 18.8529 40.4051 18.3818 39.7359C18.3818 38.3975 17.3527 37.2698 15.2945 36.3527C15.3193 36.0305 15.4557 35.8694 15.7037 35.8694C17.3403 35.919 18.5181 35.9438 19.2372 35.9438C19.9812 35.9438 20.3903 35.5472 20.4647 34.7541C20.6879 34.184 20.7994 33.143 20.7994 31.6311V27.5786C20.1795 28.0496 19.448 28.6568 18.6049 29.4004L15.6293 31.8541C13.7199 33.4156 12.009 34.469 10.4964 35.0143C10.05 35.3861 9.47968 35.7455 8.78537 36.0925C7.99187 36.613 7.49594 36.8732 7.29756 36.8732C7.09919 36.8732 7 36.7865 7 36.613C7.0248 36.4395 7.45874 35.8322 8.30183 34.7912C9.14493 33.7502 10.422 32.4242 12.1329 30.8132L17.4147 26.1659L15.6293 26.5748C14.7366 26.5748 13.6456 25.1249 12.3561 22.225C11.3642 19.2259 10.8683 16.8093 10.8683 14.9752C10.8931 14.4299 11.0915 13.8351 11.4634 13.1907C11.885 12.7941 12.3313 12.6082 12.8025 12.633C13.2736 12.633 13.6704 12.98 13.9927 13.674C16.398 13.2278 18.6421 12.8684 20.7251 12.5958C20.7003 11.5548 20.6879 10.6501 20.6879 9.88179L17.6378 10.3279C16.522 10.5014 15.6169 10.5882 14.9226 10.5882C14.2531 10.5882 13.6456 10.3279 13.1 9.80744C12.5793 9.26215 12.3189 8.67969 12.3189 8.06006C12.3437 7.19256 12.8769 6.64728 13.9183 6.42421C15.6045 6.32507 16.9435 6.21354 17.9354 6.08961L20.4647 5.79218C20.4399 5.27169 20.4151 4.88751 20.3903 4.63966C20.4151 3.3756 21.0474 2.49571 22.2873 2C22.9816 2.14871 23.5023 2.39657 23.8495 2.74357C24.2214 3.09056 24.5066 3.66063 24.7049 4.45377V5.12297C25.3497 5.04862 26.3539 4.87512 27.7178 4.60248C29.0816 4.32984 30.0487 4.14395 30.619 4.0448C31.9332 4.19352 32.5903 4.77598 32.5903 5.79218C32.5903 6.48618 32.3796 6.98189 31.958 7.27931C31.6109 7.75024 30.929 8.10963 29.9123 8.35748C28.9204 8.60534 27.2094 8.92755 24.7793 9.32412C24.8041 10.2412 24.8165 11.1706 24.8165 12.1125C26.23 11.9886 27.5566 11.8894 28.7964 11.8151C29.6395 11.8398 30.247 11.8894 30.619 11.9638C31.1149 11.5176 31.5365 11.2822 31.8836 11.2574C32.5532 11.2574 33.1607 11.6416 33.7062 12.4099C34.103 13.1039 34.3013 14.1077 34.3013 15.4214C34.3013 16.7102 34.0162 18.2841 33.4458 20.143C33.0987 21.4814 32.6771 22.448 32.1812 23.0429C31.2141 24.7779 30.0239 25.7197 28.6105 25.8684C28.1145 26.3394 27.5442 26.5748 26.8995 26.5748C27.1474 26.7483 27.383 26.9466 27.6062 27.1697C30.309 29.45 33.669 31.6683 37.6861 33.8246C39.1243 34.4442 40.3518 35.0887 41.3684 35.7579C42.3851 36.4271 42.8934 36.8608 42.8934 37.0591C42.819 37.1582 42.6331 37.2078 42.3355 37.2078ZM25.0025 25.1621C25.3745 25.4099 25.734 25.6702 26.0812 25.9428C25.982 25.6702 25.8952 25.4099 25.8208 25.1621H25.0025ZM16.8567 23.4147C18.3446 23.1916 19.6588 23.0057 20.7994 22.857V21.184C20.2043 21.2336 19.5968 21.2583 18.9769 21.2583C18.3818 21.2583 17.9106 21.1096 17.5635 20.8122C17.2163 20.49 17.0427 20.0439 17.0427 19.4738C17.0675 18.9037 17.4147 18.4948 18.0842 18.2469C18.8777 18.0486 19.758 17.8751 20.7251 17.7264H20.7623V16.1277C19.4976 16.3508 18.295 16.5119 17.1543 16.6111C16.6584 16.6854 15.9145 16.8961 14.9226 17.2431C15.8401 21.3575 16.4848 23.4147 16.8567 23.4147ZM24.8537 15.2355C24.8537 15.7807 24.8661 16.3384 24.8909 16.9085C25.6596 16.7846 26.1928 16.7102 26.4903 16.6854C27.2342 16.6854 27.6062 16.9704 27.6062 17.5405C27.6062 18.4824 27.2962 19.102 26.6763 19.3994C26.23 19.6969 25.6348 19.9819 24.8909 20.2545V22.3365C25.3869 22.2869 25.8208 22.2622 26.1928 22.2622C26.5647 22.2622 27.0235 22.3861 27.569 22.6339C28.0153 21.6921 28.5361 20.2669 29.1312 18.3584C29.4783 17.1439 29.6519 16.103 29.6519 15.2355C29.6519 14.715 29.4288 14.4299 28.9824 14.3804C28.1641 14.4547 26.7879 14.7398 24.8537 15.2355Z" fill="url(#paint0_linear_1506_1937)"/>
<path d="M60.7472 13.9342C61.5903 13.7359 62.5077 13.5872 63.4996 13.4881C63.0533 14.0582 62.6689 14.8265 62.3466 15.7931C62.049 16.735 61.4167 17.6273 60.4496 18.47C59.6809 19.1888 58.6766 20.3041 57.4368 21.816C56.1969 23.3031 54.548 25.1249 52.4898 27.2812C50.4565 29.4128 48.7951 31.0858 47.5057 32.3003C46.241 33.49 45.4971 34.2707 45.2739 34.6425C45.0756 34.9895 45.026 35.2498 45.1252 35.4233C45.2243 35.5968 45.5219 35.5472 46.0178 35.2745C46.5386 35.0019 47.0345 34.7912 47.5057 34.6425C47.9768 34.4938 48.3735 34.2583 48.6959 33.9361C49.0183 33.5891 49.4522 33.3413 49.9977 33.1926C50.5681 33.0439 51.9071 32.1392 54.0148 30.4786C56.1474 28.7931 57.5484 27.5539 58.2179 26.7607C58.9122 25.9428 59.5197 25.3356 60.0405 24.939C60.586 24.5176 61.1439 23.9352 61.7142 23.1916C62.2846 22.448 62.7557 21.9152 63.1277 21.5929C63.1525 21.5186 63.2145 21.4566 63.3136 21.4071C64.2559 21.3823 65.8925 20.9361 68.2234 20.0686C68.8929 19.8704 69.3021 19.8456 69.4509 19.9943C69.6244 20.143 69.6492 20.49 69.5253 21.0353C69.0293 24.3317 68.459 26.6492 67.8143 27.9876C67.2191 29.5739 66.4752 31.0982 65.5826 32.5605C64.6651 34.0477 63.698 34.7788 62.6813 34.7541C62.0118 34.7541 60.5488 34.3575 58.2923 33.5643C57.7715 33.3661 57.4616 33.3908 57.3624 33.6387C57.2384 33.7874 57.3748 34.1344 57.7715 34.6797C58.1931 35.225 58.3419 35.7455 58.2179 36.2412C58.1187 36.7369 58.2799 37.3194 58.7014 37.9886C59.1478 38.633 59.5693 39.0048 59.9661 39.1039C60.4124 39.1287 60.9827 39.0048 61.6771 38.7321C62.3962 38.4347 63.1029 38.3851 63.7972 38.5834C64.7147 38.6826 65.7437 38.4471 66.8844 37.877C68.0498 37.2822 69.2525 36.142 70.4923 34.4566C71.757 32.7712 72.5877 31.2345 72.9844 29.8465C73.3812 28.5825 73.7655 26.897 74.1375 24.7903L74.807 20.4404C74.9806 19.449 74.7202 18.7178 74.0259 18.2469C72.9348 17.5777 72.0297 17.1687 71.3106 17.02C70.8147 16.9952 70.4427 17.1935 70.1948 17.6149C69.9716 18.0362 69.6864 18.2593 69.3393 18.2841C68.4218 18.3089 67.3679 18.3089 66.1777 18.2841L67.182 16.6854C67.3555 16.4128 67.4919 15.9542 67.5911 15.3098C67.6903 14.6654 67.5663 14.0582 67.2191 13.4881C67.0952 13.2898 66.934 13.1287 66.7356 13.0048C68.5458 12.7321 70.6907 12.5214 73.1704 12.3727C75.6501 12.1992 77.2867 12.2488 78.0802 12.5214C78.7001 12.7941 79.1712 12.8932 79.4936 12.8189C79.8159 12.7445 80.1755 12.5958 80.5723 12.3727C80.7706 12.2488 80.907 11.8646 80.9814 11.2202C81.1054 10.0057 80.6094 9.27455 79.4936 9.02669C78.7993 8.90276 78.2909 8.72927 77.9686 8.5062C77.671 8.28313 77.4355 8.20877 77.2619 8.28313C76.4436 8.67969 74.807 8.90276 72.3521 8.95234C69.922 8.97712 67.6035 9.07626 65.3966 9.24976C65.5206 8.90276 65.6197 8.5062 65.6941 8.06006C65.7189 7.39085 65.3966 6.42421 64.7271 5.16015C64.2063 4.49094 63.5368 3.87131 62.7185 3.30124C62.4705 3.10296 62.1854 3.00381 61.863 3.00381C61.5655 3.00381 61.2431 2.99142 60.8959 2.96663C60.5736 2.94185 60.2264 3.0286 59.8545 3.22688C59.4825 3.42517 59.2718 3.67302 59.2222 3.97045C59.1726 4.26787 59.123 4.54051 59.0734 4.78837C58.999 5.38322 59.3461 5.90372 60.1149 6.34986C60.8836 6.796 61.3299 7.45281 61.4539 8.3203C61.4787 8.71687 61.5159 9.13823 61.5655 9.58437C61.2431 9.58437 59.3709 9.77026 55.949 10.142C52.5518 10.5138 49.849 10.9847 47.8404 11.5548C46.9973 11.8027 46.489 12.1621 46.3154 12.633C46.1418 13.0791 46.3526 13.7979 46.9477 14.7893C47.5428 15.756 48.1008 16.3508 48.6215 16.5739C48.9935 16.7474 49.8738 16.6358 51.2624 16.2393C53.9652 15.3966 57.1268 14.6282 60.7472 13.9342Z" fill="url(#paint1_linear_1506_1937)"/>
<path d="M15.3477 74.9104C14.7542 75.7888 14.3338 77.2405 14.0865 79.2657C14.1359 80.1197 14.445 80.7419 15.0138 81.1323C15.1869 81.2299 15.3848 81.3031 15.6073 81.3519C16.4481 81.2787 16.8932 80.8029 16.9427 79.9245C16.8438 78.2165 16.8561 76.8867 16.9798 75.9351C17.1282 74.9836 17.1405 74.4102 17.0169 74.215C16.819 73.727 16.5099 73.6294 16.0895 73.9222C15.8175 74.0686 15.5702 74.398 15.3477 74.9104ZM27.1806 80.3271C27.1806 76.4719 27.0941 73.666 26.9209 71.9092L30.482 70.921C30.754 70.8966 30.9147 70.738 30.9642 70.4452C31.0136 70.1524 31.0878 69.9084 31.1867 69.7132C31.2857 69.518 31.3351 69.335 31.3351 69.1642C31.3351 68.9935 31.3475 68.7983 31.3722 68.5787C31.4217 68.3347 31.3722 68.1151 31.2238 67.9199C31.026 67.7491 30.8776 67.6027 30.7787 67.4807C30.7045 67.3343 30.5932 67.2245 30.4449 67.1513C30.2965 67.0537 30.1481 66.9073 29.9997 66.7121C29.8019 66.5413 29.3321 66.5291 28.5902 66.6755C27.8483 66.7975 27.0322 66.9561 26.142 67.1513C26.0183 66.7365 25.7834 66.3339 25.4372 65.9435C25.1157 65.5287 24.683 65.2725 24.1389 65.1749C23.2734 65.0285 22.6428 65.5043 22.2471 66.6023C22.1482 66.9195 22.1358 67.2001 22.21 67.4441C22.2842 67.6637 22.3337 67.8345 22.3584 67.9565C22.1853 67.9809 21.7402 68.0907 21.023 68.2859C20.3306 68.4811 19.4651 68.6641 18.4265 68.8349C17.4126 69.0057 16.9303 69.335 16.9798 69.823C17.0293 70.433 17.2147 71.0796 17.5362 71.7628C17.6846 72.0068 17.8824 72.2142 18.1297 72.385C18.377 72.5314 18.5872 72.6778 18.7603 72.8242C19.1807 73.2634 19.7866 73.4098 20.5779 73.2634C21.3692 73.0926 22.1606 72.934 22.9519 72.7876C22.9519 72.8852 22.9766 73.4708 23.0261 74.5444C23.1003 75.5936 23.1003 76.8745 23.0261 78.3873C22.9519 79.8757 22.8901 80.7907 22.8406 81.1323C22.7912 81.4495 22.6552 81.6691 22.4326 81.7911C22.2595 81.8887 21.9627 81.9375 21.5423 81.9375C21.1467 81.9375 20.7881 81.9131 20.4666 81.8643C20.1451 81.8155 19.9844 81.8643 19.9844 82.0107C19.8607 82.2059 19.9349 82.4865 20.207 82.8524C20.479 83.2184 20.615 83.5844 20.615 83.9504C20.615 84.292 20.8128 84.719 21.2085 85.2314C22.0246 86.2562 22.8159 86.2562 23.5825 85.2314C23.8545 84.8898 24.312 84.6458 24.955 84.4994C25.5979 84.353 26.0802 83.9382 26.4016 83.255C26.7478 82.5719 27.0075 81.5959 27.1806 80.3271ZM33.0785 55.1833C34.7849 54.8173 35.7493 54.5977 35.9719 54.5245C36.2192 54.4269 36.4417 54.3415 36.6396 54.2683C37.2578 54.1707 37.7647 53.8047 38.1604 53.1703C38.5561 52.5115 38.3088 51.8283 37.4185 51.1207C36.553 50.3887 35.9224 50.0227 35.5267 50.0227C35.1311 49.9983 34.7478 50.1569 34.3768 50.4985C34.179 50.5961 33.8575 50.6937 33.4124 50.7913C32.992 50.8645 32.7323 50.9255 32.6334 50.9743C32.6334 50.9499 32.6952 50.8767 32.8189 50.7547C32.9673 50.6083 33.0043 50.4131 32.9302 50.1691C32.7818 49.4127 32.3119 48.7417 31.5206 48.1562C31.2733 47.961 30.9024 47.9488 30.4078 48.1196C29.9132 48.2904 29.6535 48.5344 29.6288 48.8515C29.3321 49.7299 28.7633 50.7059 27.9225 51.7795L25.4743 54.6709L23.2858 56.94C22.989 56.8424 22.7046 56.9522 22.4326 57.2694C22.0617 57.245 21.4682 57.6598 20.6521 58.5138C17.8824 61.4418 15.2858 64.5283 12.8624 67.7735L8.96751 73.4098L6.59351 77.1063C6.09892 77.9359 5.91345 78.4239 6.03709 78.5703C6.16074 78.6923 6.35857 78.6069 6.6306 78.3141C6.90262 77.9969 7.14991 77.8261 7.37247 77.8017C7.61977 77.7529 7.85469 77.6309 8.07726 77.4357C8.34928 77.0941 8.68312 76.8623 9.07879 76.7403C9.47446 76.6183 10.34 75.8863 11.6754 74.5444C13.0107 73.2024 14.3461 71.592 15.6815 69.7132C17.0416 67.8345 18.7479 65.6263 20.8005 63.0887C21.394 62.3323 22.0493 61.7956 22.7664 61.4784C23.1126 61.332 23.3847 61.1612 23.5825 60.966C23.8298 60.9904 24.1513 61.027 24.5469 61.0758C24.9673 61.1246 25.3012 61.271 25.5485 61.515C25.8205 61.881 26.1914 62.186 26.6613 62.4299C27.1559 62.6495 27.7246 63.1985 28.3676 64.0769C29.0353 64.9553 30.4943 66.2119 32.7447 67.8467C35.0198 69.4814 37.2949 70.9088 39.57 72.1288C40.4849 72.6412 41.1774 72.6046 41.6472 72.019C42.0676 71.4334 42.8219 71.348 43.9099 71.7628C44.3551 71.9092 44.7755 71.8604 45.1711 71.6164C45.5915 71.348 45.7646 71.0796 45.6905 70.8112C45.5668 70.3232 44.9857 69.7864 43.9471 69.2008C43.6256 69.03 43.0692 68.6275 42.2778 67.9931C41.5112 67.3587 40.2871 66.6145 38.6055 65.7605C36.9239 64.8821 35.8729 64.2721 35.4525 63.9305C35.0321 63.5889 34.4386 63.1985 33.672 62.7593C33.1033 62.4909 32.5345 62.0518 31.9657 61.4418C31.2733 60.783 30.1852 59.9656 28.7015 58.9896C27.2424 57.9892 25.9936 57.3914 24.955 57.1962L28.6644 54.5977C29.0106 54.3293 29.431 54.0365 29.9256 53.7193C30.3707 54.5489 30.8282 55.0491 31.298 55.2199C31.9163 55.3663 32.5098 55.3541 33.0785 55.1833ZM16.9056 51.3769C16.2626 51.4989 15.6197 51.6331 14.9767 51.7795C13.8886 51.9015 13.2951 52.0723 13.1962 52.2919C12.9242 52.9019 12.9984 53.5729 13.4188 54.3049C13.8392 55.0369 14.1854 55.5248 14.4574 55.7688C14.7294 55.9884 15.1251 56.0372 15.6444 55.9152C16.1885 55.7932 16.6459 55.6834 17.0169 55.5858C17.0416 55.6834 17.0663 55.8542 17.0911 56.0982C17.1405 56.3178 17.2518 56.5862 17.4249 56.9034C17.7959 58.099 18.2657 58.6724 18.8345 58.6236C19.5022 58.5992 19.9473 58.1356 20.1699 57.2328C20.2688 56.6716 20.4295 56.2202 20.6521 55.8786C20.6768 55.781 20.6644 55.5858 20.615 55.2931C20.5655 55.0003 20.5779 54.5733 20.6521 54.0121C20.6521 53.9877 20.8623 53.9145 21.2827 53.7925C21.7031 53.6461 22.0987 53.3899 22.4697 53.0239C22.8159 52.6823 23.2116 52.4139 23.6567 52.2187C24.1018 51.9991 24.3986 51.5355 24.5469 50.8279C24.6211 50.2423 24.0276 50.0349 22.7664 50.2057C22.1729 50.3033 21.6289 50.4009 21.1343 50.4985C21.0107 49.9617 20.6274 49.4615 19.9844 48.9979C19.3414 48.51 18.785 48.388 18.3152 48.632C17.87 48.8515 17.4744 49.4493 17.1282 50.4253C17.0045 50.6937 16.9303 51.0109 16.9056 51.3769ZM33.9688 73.8124C33.6968 73.5684 33.0785 73.4464 32.1141 73.4464C31.1991 73.3976 31.162 74.3248 32.0028 76.2279C32.2006 76.6427 32.4108 77.7285 32.6334 79.4853C32.9796 81.1933 33.3135 82.0229 33.6349 81.9741C34.0801 81.8765 34.5376 81.5959 35.0074 81.1323C36.0708 80.1319 36.6272 79.3267 36.6766 78.7167C36.7261 78.1067 36.417 77.1673 35.7493 75.8986C35.4031 75.2398 34.8096 74.5444 33.9688 73.8124Z" fill="url(#paint2_linear_1506_1937)"/>
<path d="M60.1942 65.2481C60.1942 67.4929 60.3796 68.7007 60.7506 68.8715C59.9098 68.8959 58.9453 69.0301 57.8572 69.274C57.2885 68.6885 56.7692 68.5543 56.2993 68.8715C55.3843 69.457 54.865 71.3846 54.7414 74.6542C54.6919 77.9725 54.8526 80.0099 55.2236 80.7663C55.3472 81.6203 55.5574 82.4133 55.8542 83.1452C56.1757 83.8772 56.46 84.3896 56.7073 84.6824C56.9794 84.9752 57.3008 85.0972 57.6718 85.0484C58.1664 84.9508 58.5126 84.6214 58.7104 84.0602C60.2931 83.9626 61.5543 83.8284 62.494 83.6576C63.4337 83.4868 64.1508 83.3648 64.6454 83.2916C64.7196 83.4136 64.8062 83.682 64.9051 84.0968C65.1771 85.146 65.5357 85.6218 65.9808 85.5242C66.327 85.4998 66.6732 85.3412 67.0194 85.0484C67.3904 84.7556 67.9097 84.5726 68.5774 84.4994C69.2698 84.4262 69.9004 83.987 70.4692 83.1818C71.0627 82.3767 71.3965 81.3031 71.4707 79.9611C71.5696 78.5947 71.6191 77.1795 71.6191 75.7155C71.6438 74.2516 71.4954 72.5314 71.1739 70.555C70.9761 69.3838 70.5804 68.6031 69.9869 68.2127C69.4676 67.7979 68.936 67.5417 68.3919 67.4441C67.9468 67.4197 67.4769 67.6637 66.9823 68.1761C66.5125 68.5909 65.8201 68.7739 64.9051 68.7251C63.9901 68.6763 63.0875 68.6763 62.1972 68.7251C62.5187 68.6275 62.8526 68.4689 63.1988 68.2493C63.8912 67.8101 64.2745 66.7731 64.3487 65.1383C64.3239 64.4307 64.3239 63.6743 64.3487 62.8691C64.3734 62.064 64.3858 61.576 64.3858 61.4052C64.8309 61.7468 65.3255 62.1982 65.8695 62.7593C67.4275 64.4673 69.0101 65.9313 70.6175 67.1513C72.2497 68.3469 74.0673 69.274 76.0703 69.9328C77.2079 70.3476 77.8632 70.4452 78.0363 70.2256C78.2342 69.9816 78.4196 69.7132 78.5927 69.4204C78.6916 69.2496 78.9884 69.2252 79.483 69.3472C79.9776 69.4692 80.299 69.4936 80.4474 69.4204C80.5958 69.3228 81.1027 69.4082 81.9683 69.6766C82.3145 69.7742 82.6236 69.579 82.8956 69.091C83.1676 68.6031 82.908 68.2005 82.1166 67.8833C81.35 67.5417 80.8678 67.2611 80.67 67.0415C80.4969 66.7975 79.6932 66.4071 78.2589 65.8703C76.8493 65.3335 75.2419 64.5649 73.4367 63.5645C71.6314 62.5641 69.9375 61.3564 68.3548 59.9412C67.9097 59.5508 67.4893 59.2092 67.0936 58.9164C68.973 58.4772 70.395 58.2088 71.3594 58.1112C72.3239 57.9892 72.9297 57.7208 73.177 57.306C73.3996 56.8668 73.4367 56.4764 73.2883 56.1348C72.8432 55.1833 72.0889 54.5001 71.0256 54.0853C70.7536 53.9633 70.259 53.9999 69.5418 54.1951C68.8247 54.3659 68.0952 54.5123 67.3533 54.6343C66.6114 54.7563 65.7582 54.9393 64.7938 55.1833C64.9422 54.3293 64.9051 53.5241 64.6825 52.7677C66.1663 52.7189 67.514 52.5481 68.7257 52.2553C69.1461 52.2309 69.4676 52.1455 69.6902 51.9991C70.0364 51.7551 70.0859 51.2427 69.8386 50.4619C69.616 49.6811 69.1956 49.1321 68.5774 48.8149C67.9839 48.4978 67.5017 48.4368 67.1307 48.632C65.8943 49.1443 64.1014 49.6445 61.7521 50.1325C59.4276 50.5961 57.4121 51.0231 55.7058 51.4135C54.2962 51.9991 53.6409 52.5481 53.7398 53.0605C53.8388 53.4753 54.7908 53.5973 56.5961 53.4265C58.0551 53.1581 59.4152 52.9873 60.6764 52.9141C60.6269 53.3533 60.5404 54.3415 60.4167 55.8786C58.6857 56.147 57.375 56.4032 56.4848 56.6472C54.5806 57.062 53.2329 57.3792 52.4415 57.5988C51.7491 57.7452 51.4029 58.1234 51.4029 58.7334C51.4029 59.3434 51.5266 59.7826 51.7739 60.051L52.2932 60.6732C52.7136 61.1856 53.0969 61.5394 53.4431 61.7346C54.2839 62.125 54.9392 62.2104 55.409 61.9908C55.8789 61.7712 56.4106 61.5882 57.0041 61.4418L51.3287 67.8101C49.9192 69.274 48.8434 70.4696 48.1016 71.3968L46.0985 73.8124C44.9609 75.374 44.4911 76.2523 44.6889 76.4475C44.862 76.6427 45.134 76.6061 45.505 76.3377C45.8759 76.0449 46.2098 75.8986 46.5065 75.8986C46.8033 75.8986 47.0135 75.8131 47.1371 75.6424C47.2608 75.4472 47.4215 75.3252 47.6193 75.2764C47.8172 75.2276 48.1387 74.9836 48.5838 74.5444C50.7847 72.2752 52.355 70.738 53.2947 69.9328C54.2591 69.1276 55.3225 68.0419 56.4848 66.6755C57.6718 65.2847 58.8959 64.0647 60.1571 63.0155C60.1571 63.6987 60.1694 64.4429 60.1942 65.2481ZM66.055 81.2055C65.9561 81.1079 65.8572 80.9615 65.7582 80.7663C65.6841 80.6443 65.6099 80.5589 65.5357 80.5101C65.4615 80.4369 65.3626 80.3271 65.2389 80.1807C65.1153 80.0343 64.9545 79.9855 64.7567 80.0343C61.5172 80.4247 59.6378 80.7297 59.1184 80.9493C58.8464 80.2173 58.698 79.5829 58.6733 79.0461C58.6486 78.5093 58.6239 78.1311 58.5991 77.9115H58.7846C60.1694 77.7407 61.3193 77.5699 62.2343 77.3991L64.3116 76.9599C64.5094 76.9355 64.6207 76.8379 64.6454 76.6671C64.6702 76.4719 64.7196 76.3255 64.7938 76.2279C64.8927 76.1059 64.9422 75.9839 64.9422 75.862C64.9422 75.7156 64.9545 75.5692 64.9793 75.4228C65.0287 75.252 65.004 75.1178 64.9051 75.0202L64.6083 74.6542C64.5589 74.581 64.4971 74.5078 64.4229 74.4346L64.089 74.1784C63.9901 74.0564 63.8541 74.0076 63.681 74.032C61.7274 74.276 60.4538 74.4712 59.8603 74.6176C59.2915 74.7396 58.8464 74.8372 58.5249 74.9104C58.5249 74.3736 58.5868 73.5928 58.7104 72.568C59.9469 72.202 60.9855 71.8482 61.8263 71.5066C62.6671 71.165 63.8912 70.8356 65.4986 70.5184C65.8943 70.4208 66.2034 70.4452 66.4259 70.5916C66.6485 70.738 66.7721 71.2138 66.7969 72.019C66.8216 72.7998 66.834 73.8124 66.834 75.0568C66.834 76.3011 66.7845 77.6553 66.6856 79.1193C66.5619 80.0221 66.3517 80.7175 66.055 81.2055Z" fill="url(#paint3_linear_1506_1937)"/>
<defs>
<linearGradient id="paint0_linear_1506_1937" x1="82.7447" y1="2" x2="82.7447" y2="41.1859" gradientUnits="userSpaceOnUse">
<stop stop-color="#A2BE95"/>
<stop offset="1" stop-color="#003416"/>
</linearGradient>
<linearGradient id="paint1_linear_1506_1937" x1="82.7447" y1="2" x2="82.7447" y2="41.1859" gradientUnits="userSpaceOnUse">
<stop stop-color="#A2BE95"/>
<stop offset="1" stop-color="#003416"/>
</linearGradient>
<linearGradient id="paint2_linear_1506_1937" x1="7.46181" y1="47.424" x2="7.46181" y2="85.9999" gradientUnits="userSpaceOnUse">
<stop stop-color="#A2BE95"/>
<stop offset="1" stop-color="#003416"/>
</linearGradient>
<linearGradient id="paint3_linear_1506_1937" x1="7.46181" y1="47.424" x2="7.46181" y2="85.9999" gradientUnits="userSpaceOnUse">
<stop stop-color="#A2BE95"/>
<stop offset="1" stop-color="#003416"/>
</linearGradient>
</defs>
</svg>
