<svg width="188" height="56" viewBox="0 0 188 56" fill="none" xmlns="http://www.w3.org/2000/svg">
<path d="M46.9075 46.5957C46.2263 46.4776 45.3081 46.4186 44.1529 46.4186C43.4124 46.6547 42.9089 46.8761 42.6423 47.0827C42.0796 47.2598 41.3687 47.3483 40.5098 47.3483C39.6508 47.3483 38.4216 46.9351 36.8222 46.1086C35.4597 45.5183 34.038 44.6328 32.557 43.4521C31.0464 42.419 29.4618 40.8546 27.8031 38.7588C27.2404 37.8733 26.6776 37.1944 26.1148 36.7222V43.9834C25.9668 45.7839 25.4484 47.127 24.5598 48.0125C23.849 48.839 23.1677 49.2817 22.5161 49.3408L21.4943 50.6248C21.1684 50.9494 20.739 51.1118 20.2058 51.1118C19.495 50.9052 18.8582 50.4034 18.2954 49.6064C18.2954 48.0125 17.0662 46.6695 14.6078 45.5773C14.6374 45.1936 14.8003 45.0017 15.0965 45.0017C17.0514 45.0608 18.4583 45.0903 19.3173 45.0903C20.2058 45.0903 20.6945 44.618 20.7834 43.6735C21.05 42.9946 21.1833 41.7548 21.1833 39.9543V35.1282C20.4428 35.6891 19.569 36.4122 18.562 37.2977L15.0077 40.2199C12.727 42.0795 10.6833 43.334 8.8765 43.9834C8.34335 44.4261 7.66211 44.8541 6.83277 45.2674C5.88496 45.8872 5.29258 46.1972 5.05563 46.1972C4.81867 46.1972 4.7002 46.0939 4.7002 45.8872C4.72981 45.6806 5.24815 44.9575 6.2552 43.7177C7.26225 42.478 8.78764 40.8988 10.8314 38.9802L17.1402 33.4458L15.0077 33.9328C13.9414 33.9328 12.6381 32.206 11.0979 28.7525C9.91317 25.1809 9.32078 22.303 9.32078 20.1187C9.3504 19.4694 9.58736 18.761 10.0316 17.9935C10.5352 17.5212 11.0683 17.2999 11.6311 17.3294C12.1938 17.3294 12.6677 17.7426 13.0528 18.5691C15.9259 18.0378 18.6064 17.6098 21.0944 17.2851C21.0648 16.0454 21.05 14.968 21.05 14.053L17.4068 14.5843C16.074 14.7909 14.9929 14.8942 14.1635 14.8942C13.3638 14.8942 12.6381 14.5843 11.9865 13.9644C11.3645 13.315 11.0535 12.6214 11.0535 11.8835C11.0831 10.8504 11.7199 10.201 12.9639 9.93532C14.978 9.81725 16.5775 9.68442 17.7622 9.53684L20.7834 9.18263C20.7538 8.56277 20.7242 8.10526 20.6945 7.81008C20.7242 6.30471 21.4795 5.25685 22.9604 4.6665C23.7897 4.84361 24.4117 5.13878 24.8264 5.55202C25.2707 5.96526 25.6113 6.64416 25.8483 7.5887V8.38567C26.6184 8.29712 27.818 8.0905 29.447 7.76581C31.0761 7.44112 32.2312 7.21974 32.9124 7.10167C34.4823 7.27877 35.2672 7.97243 35.2672 9.18263C35.2672 10.0091 35.0154 10.5995 34.5119 10.9537C34.0972 11.5145 33.2827 11.9425 32.0683 12.2377C30.8835 12.5328 28.8398 12.9166 25.9371 13.3888C25.9668 14.481 25.9816 15.5879 25.9816 16.7095C27.6699 16.5619 29.2545 16.4439 30.7354 16.3553C31.7425 16.3848 32.4682 16.4439 32.9124 16.5324C33.5048 16.0011 34.0084 15.7207 34.423 15.6912C35.2227 15.6912 35.9484 16.1487 36.6 17.0637C37.0739 17.8902 37.3109 19.0856 37.3109 20.6501C37.3109 22.185 36.9703 24.0593 36.289 26.2731C35.8744 27.867 35.3708 29.0182 34.7785 29.7266C33.6233 31.7928 32.2016 32.9144 30.5133 33.0915C29.9209 33.6524 29.2397 33.9328 28.4696 33.9328C28.7658 34.1394 29.0471 34.3755 29.3137 34.6412C32.5422 37.3568 36.5556 39.9986 41.3539 42.5666C43.0718 43.3045 44.538 44.0719 45.7524 44.8689C46.9667 45.6659 47.5739 46.1824 47.5739 46.4186C47.4851 46.5366 47.2629 46.5957 46.9075 46.5957ZM26.2037 32.2503C26.648 32.5455 27.0775 32.8554 27.4921 33.1801C27.3737 32.8554 27.27 32.5455 27.1811 32.2503H26.2037ZM16.4738 30.1693C18.251 29.9037 19.8208 29.6823 21.1833 29.5052V27.5128C20.4724 27.5718 19.7467 27.6014 19.0063 27.6014C18.2954 27.6014 17.7326 27.4243 17.318 27.07C16.9033 26.6863 16.696 26.155 16.696 25.4761C16.7256 24.7972 17.1402 24.3102 17.94 24.015C18.8878 23.7789 19.9393 23.5723 21.0944 23.3952H21.1388V21.4913C19.6283 21.757 18.1917 21.9488 16.8292 22.0669C16.2369 22.1554 15.3483 22.4063 14.1635 22.8196C15.2594 27.7194 16.0295 30.1693 16.4738 30.1693ZM26.026 20.4287C26.026 21.0781 26.0408 21.7422 26.0704 22.4211C26.9886 22.2735 27.6254 22.185 27.9809 22.1554C28.8694 22.1554 29.3137 22.4949 29.3137 23.1738C29.3137 24.2954 28.9435 25.0334 28.203 25.3876C27.6699 25.7418 26.959 26.0812 26.0704 26.4059V28.8854C26.6628 28.8263 27.1811 28.7968 27.6254 28.7968C28.0697 28.7968 28.6177 28.9444 29.2693 29.2396C29.8024 28.1179 30.4244 26.4207 31.1353 24.1478C31.55 22.7015 31.7573 21.4618 31.7573 20.4287C31.7573 19.8088 31.4907 19.4694 30.9576 19.4103C29.9801 19.4989 28.3363 19.8383 26.026 20.4287Z" fill="url(#paint0_linear_1506_616)"/>
<path d="M68.8997 18.879C69.9068 18.6429 71.0027 18.4658 72.1875 18.3477C71.6543 19.0266 71.1952 19.9416 70.8102 21.0928C70.4547 22.2145 69.6994 23.2771 68.5443 24.2807C67.6261 25.1367 66.4265 26.4649 64.9456 28.2655C63.4646 30.0365 61.4949 32.206 59.0365 34.774C56.6078 37.3125 54.6233 39.3049 53.0831 40.7513C51.5725 42.1681 50.6839 43.0979 50.4174 43.5406C50.1804 43.9539 50.1212 44.2638 50.2397 44.4704C50.3581 44.677 50.7136 44.618 51.3059 44.2933C51.9279 43.9686 52.5203 43.7177 53.0831 43.5406C53.6459 43.3635 54.1198 43.0831 54.5048 42.6994C54.8899 42.2862 55.4082 41.991 56.0598 41.8139C56.7411 41.6368 58.3405 40.5594 60.8581 38.5817C63.4054 36.5746 65.0789 35.0987 65.8786 34.1542C66.7079 33.1801 67.4336 32.4569 68.0556 31.9847C68.7072 31.4829 69.3736 30.7892 70.0549 29.9037C70.7361 29.0182 71.2989 28.3836 71.7432 27.9998C71.7728 27.9113 71.8468 27.8375 71.9653 27.7785C73.0908 27.7489 75.0457 27.2176 77.8299 26.1845C78.6296 25.9484 79.1183 25.9189 79.2961 26.096C79.5034 26.2731 79.533 26.6863 79.3849 27.3357C78.7925 31.2615 78.1113 34.0213 77.3412 35.6153C76.6303 37.5044 75.7418 39.3197 74.6755 41.0612C73.5796 42.8322 72.4244 43.703 71.21 43.6735C70.4103 43.6735 68.6628 43.2012 65.9674 42.2566C65.3454 42.0205 64.9752 42.05 64.8567 42.3452C64.7086 42.5223 64.8715 42.9355 65.3454 43.5849C65.849 44.2343 66.0267 44.8541 65.8786 45.4445C65.7601 46.0348 65.9526 46.7285 66.4561 47.5255C66.9893 48.2929 67.4928 48.7357 67.9667 48.8537C68.4999 48.8832 69.1811 48.7357 70.0104 48.411C70.8694 48.0568 71.7135 47.9977 72.5429 48.2339C73.6388 48.3519 74.868 48.0715 76.2305 47.3926C77.6226 46.6842 79.0591 45.3264 80.5401 43.3193C82.0506 41.3121 83.0429 39.482 83.5168 37.8291C83.9907 36.3237 84.4498 34.3165 84.8941 31.8076L85.6938 26.6273C85.9011 25.4466 85.5901 24.5758 84.7608 24.015C83.4575 23.2181 82.3764 22.731 81.5175 22.5539C80.9251 22.5244 80.4808 22.7605 80.1846 23.2623C79.9181 23.7641 79.5774 24.0298 79.1628 24.0593C78.0669 24.0888 76.808 24.0888 75.3863 24.0593L76.5859 22.1554C76.7932 21.8307 76.9561 21.2847 77.0746 20.5172C77.1931 19.7498 77.045 19.0266 76.6303 18.3477C76.4822 18.1116 76.2897 17.9197 76.0528 17.7721C78.215 17.4474 80.777 17.1965 83.7389 17.0194C86.7008 16.8128 88.6557 16.8719 89.6035 17.1965C90.344 17.5212 90.9068 17.6393 91.2918 17.5508C91.6769 17.4622 92.1063 17.2851 92.5802 17.0194C92.8172 16.8719 92.9801 16.4143 93.069 15.6469C93.2171 14.2006 92.6247 13.3298 91.2918 13.0346C90.4625 12.887 89.8553 12.6804 89.4702 12.4148C89.1148 12.1491 88.8334 12.0606 88.6261 12.1491C87.6487 12.6214 85.6938 12.887 82.7615 12.9461C79.8588 12.9756 77.0894 13.0937 74.4533 13.3003C74.6014 12.887 74.7199 12.4148 74.8087 11.8835C74.8384 11.0865 74.4533 9.93532 73.6536 8.42994C73.0316 7.63298 72.2319 6.89505 71.2545 6.21616C70.9583 5.98002 70.6176 5.86195 70.2326 5.86195C69.8772 5.86195 69.4921 5.84719 69.0774 5.81767C68.6924 5.78816 68.2777 5.89147 67.8334 6.1276C67.3891 6.36374 67.1374 6.65891 67.0781 7.01312C67.0189 7.36733 66.9597 7.69201 66.9004 7.98719C66.8116 8.6956 67.2262 9.31546 68.1444 9.84677C69.0626 10.3781 69.5958 11.1603 69.7439 12.1934C69.7735 12.6657 69.8179 13.1675 69.8772 13.6988C69.4921 13.6988 67.2559 13.9201 63.1684 14.3629C59.1106 14.8057 55.8821 15.3665 53.483 16.0454C52.4759 16.3405 51.8687 16.7685 51.6614 17.3294C51.454 17.8607 51.7058 18.7167 52.4167 19.8974C53.1275 21.0485 53.794 21.757 54.416 22.0226C54.8602 22.2292 55.9117 22.0964 57.5704 21.6241C60.7989 20.6205 64.5753 19.7055 68.8997 18.879Z" fill="url(#paint1_linear_1506_616)"/>
<path d="M104.62 37.9176C103.91 38.9802 103.406 40.7365 103.11 43.1864C103.169 44.2195 103.539 44.9722 104.221 45.4445C104.428 45.5626 104.665 45.6511 104.931 45.7101C105.938 45.6216 106.472 45.046 106.531 43.9834C106.412 41.9172 106.427 40.3085 106.575 39.1573C106.753 38.0062 106.768 37.3125 106.62 37.0764C106.383 36.486 106.013 36.368 105.509 36.7222C105.183 36.8993 104.887 37.2977 104.62 37.9176ZM118.793 44.4704C118.793 39.8067 118.69 36.4122 118.482 34.287L122.747 33.0915C123.073 33.062 123.266 32.8702 123.325 32.516C123.384 32.1618 123.473 31.8666 123.592 31.6304C123.71 31.3943 123.769 31.1729 123.769 30.9663C123.769 30.7597 123.784 30.5236 123.814 30.2579C123.873 29.9627 123.814 29.6971 123.636 29.4609C123.399 29.2543 123.221 29.0772 123.103 28.9296C123.014 28.7525 122.881 28.6197 122.703 28.5311C122.525 28.4131 122.348 28.236 122.17 27.9998C121.933 27.7932 121.37 27.7785 120.481 27.9556C119.593 28.1031 118.615 28.295 117.549 28.5311C117.401 28.0294 117.12 27.5423 116.705 27.07C116.32 26.5683 115.802 26.2583 115.15 26.1403C114.113 25.9632 113.358 26.5387 112.884 27.867C112.766 28.2507 112.751 28.5902 112.84 28.8854C112.929 29.151 112.988 29.3576 113.017 29.5052C112.81 29.5347 112.277 29.6676 111.418 29.9037C110.589 30.1398 109.552 30.3612 108.308 30.5678C107.094 30.7745 106.516 31.1729 106.575 31.7633C106.635 32.5012 106.857 33.2834 107.242 34.1099C107.419 34.4051 107.656 34.656 107.953 34.8626C108.249 35.0397 108.501 35.2168 108.708 35.3939C109.211 35.9252 109.937 36.1023 110.885 35.9252C111.833 35.7186 112.781 35.5267 113.728 35.3496C113.728 35.4677 113.758 36.1761 113.817 37.4749C113.906 38.7441 113.906 40.2937 113.817 42.1238C113.728 43.9244 113.654 45.0312 113.595 45.4445C113.536 45.8282 113.373 46.0939 113.106 46.2415C112.899 46.3595 112.544 46.4186 112.04 46.4186C111.566 46.4186 111.137 46.389 110.752 46.33C110.367 46.271 110.174 46.33 110.174 46.5071C110.026 46.7432 110.115 47.0827 110.441 47.5255C110.766 47.9682 110.929 48.411 110.929 48.8537C110.929 49.267 111.166 49.7835 111.64 50.4034C112.618 51.6431 113.565 51.6431 114.484 50.4034C114.809 49.9901 115.357 49.695 116.127 49.5179C116.898 49.3408 117.475 48.839 117.86 48.0125C118.275 47.186 118.586 46.0053 118.793 44.4704ZM125.857 14.053C127.901 13.6102 129.056 13.3446 129.323 13.256C129.619 13.1379 129.886 13.0346 130.123 12.9461C130.863 12.828 131.47 12.3852 131.944 11.6178C132.418 10.8208 132.122 9.99436 131.056 9.13836C130.019 8.25284 129.264 7.81008 128.79 7.81008C128.316 7.78057 127.857 7.97243 127.412 8.38567C127.175 8.50374 126.79 8.62181 126.257 8.73987C125.754 8.82843 125.443 8.90222 125.324 8.96125C125.324 8.93174 125.398 8.84319 125.546 8.6956C125.724 8.5185 125.769 8.28236 125.68 7.98719C125.502 7.07215 124.939 6.26043 123.991 5.55202C123.695 5.31588 123.251 5.30112 122.659 5.50774C122.066 5.71436 121.755 6.00954 121.726 6.39326C121.37 7.45588 120.689 8.63656 119.682 9.93532L116.749 13.4331L114.128 16.1782C113.773 16.0601 113.432 16.193 113.106 16.5767C112.662 16.5472 111.951 17.049 110.974 18.0821C107.656 21.6241 104.546 25.358 101.644 29.2838L96.9787 36.1023L94.1353 40.5742C93.5429 41.5777 93.3207 42.1681 93.4688 42.3452C93.6169 42.4928 93.8539 42.3895 94.1797 42.0353C94.5055 41.6515 94.8017 41.4449 95.0683 41.4154C95.3644 41.3564 95.6458 41.2088 95.9124 40.9726C96.2382 40.5594 96.6381 40.279 97.112 40.1314C97.5859 39.9838 98.6226 39.0983 100.222 37.4749C101.821 35.8514 103.421 33.9033 105.02 31.6304C106.649 29.3576 108.693 26.6863 111.151 23.6165C111.862 22.7015 112.647 22.0521 113.506 21.6684C113.921 21.4913 114.247 21.2847 114.484 21.0485C114.78 21.0781 115.165 21.1223 115.639 21.1814C116.142 21.2404 116.542 21.4175 116.838 21.7127C117.164 22.1554 117.608 22.5244 118.171 22.8196C118.764 23.0852 119.445 23.7494 120.215 24.812C121.015 25.8746 122.762 27.3947 125.458 29.3724C128.182 31.35 130.907 33.0768 133.632 34.5526C134.728 35.1725 135.558 35.1282 136.12 34.4198C136.624 33.7114 137.527 33.6081 138.831 34.1099C139.364 34.287 139.867 34.228 140.341 33.9328C140.845 33.6081 141.052 33.2834 140.963 32.9587C140.815 32.3684 140.119 31.719 138.875 31.0106C138.49 30.804 137.824 30.3169 136.876 29.5495C135.958 28.782 134.491 27.8818 132.477 26.8487C130.463 25.786 129.204 25.0481 128.701 24.6349C128.197 24.2216 127.486 23.7494 126.568 23.2181C125.887 22.8934 125.206 22.3621 124.525 21.6241C123.695 20.8272 122.392 19.8383 120.615 18.6576C118.867 17.4474 117.371 16.7243 116.127 16.4881L120.57 13.3446C120.985 13.0199 121.489 12.6657 122.081 12.2819C122.614 13.2855 123.162 13.8906 123.725 14.0972C124.465 14.2743 125.176 14.2596 125.857 14.053ZM106.486 9.44829C105.716 9.59587 104.946 9.75822 104.176 9.93532C102.873 10.0829 102.162 10.2895 102.044 10.5552C101.718 11.2931 101.807 12.1048 102.31 12.9903C102.814 13.8759 103.228 14.4662 103.554 14.7614C103.88 15.027 104.354 15.0861 104.976 14.9385C105.627 14.7909 106.175 14.6581 106.62 14.54C106.649 14.6581 106.679 14.8647 106.709 15.1599C106.768 15.4255 106.901 15.7502 107.108 16.1339C107.553 17.5803 108.115 18.2739 108.797 18.2149C109.596 18.1854 110.13 17.6245 110.396 16.5324C110.515 15.8535 110.707 15.3074 110.974 14.8942C111.003 14.7761 110.989 14.54 110.929 14.1858C110.87 13.8316 110.885 13.315 110.974 12.6361C110.974 12.6066 111.226 12.5181 111.729 12.3705C112.233 12.1934 112.706 11.8835 113.151 11.4407C113.565 11.0275 114.039 10.7028 114.572 10.4666C115.106 10.201 115.461 9.64015 115.639 8.78415C115.728 8.07574 115.017 7.82484 113.506 8.03146C112.795 8.14953 112.144 8.2676 111.551 8.38567C111.403 7.73629 110.944 7.13119 110.174 6.57036C109.404 5.98002 108.737 5.83243 108.175 6.1276C107.642 6.39326 107.168 7.11643 106.753 8.29712C106.605 8.62181 106.516 9.00553 106.486 9.44829ZM126.924 36.5893C126.598 36.2942 125.857 36.1466 124.702 36.1466C123.606 36.0875 123.562 37.2092 124.569 39.5115C124.806 40.0133 125.058 41.3268 125.324 43.4521C125.739 45.5183 126.139 46.5219 126.524 46.4628C127.057 46.3448 127.605 46.0053 128.168 45.4445C129.441 44.2343 130.108 43.2602 130.167 42.5223C130.226 41.7844 129.856 40.6479 129.056 39.1131C128.642 38.3161 127.931 37.4749 126.924 36.5893Z" fill="url(#paint2_linear_1506_616)"/>
<path d="M158.335 26.2288C158.335 28.9444 158.557 30.4055 159.001 30.6121C157.994 30.6416 156.839 30.804 155.536 31.0991C154.855 30.3907 154.233 30.2284 153.67 30.6121C152.574 31.3205 151.952 33.6524 151.804 37.6077C151.745 41.622 151.937 44.0867 152.381 45.0017C152.529 46.0348 152.781 46.9941 153.137 47.8797C153.522 48.7652 153.862 49.385 154.158 49.7392C154.484 50.0934 154.869 50.241 155.314 50.182C155.906 50.0639 156.321 49.6654 156.558 48.9866C158.453 48.8685 159.964 48.7061 161.089 48.4995C162.215 48.2929 163.074 48.1453 163.666 48.0568C163.755 48.2043 163.859 48.529 163.977 49.0308C164.303 50.3001 164.733 50.8757 165.266 50.7576C165.68 50.7281 166.095 50.5362 166.51 50.182C166.954 49.8278 167.576 49.6064 168.376 49.5179C169.205 49.4293 169.96 48.898 170.642 47.9239C171.352 46.9499 171.752 45.6511 171.841 44.0277C171.96 42.3747 172.019 40.6627 172.019 38.8917C172.048 37.1206 171.871 35.0397 171.486 32.6488C171.249 31.232 170.775 30.2874 170.064 29.8151C169.442 29.3134 168.805 29.0034 168.154 28.8854C167.62 28.8558 167.058 29.151 166.465 29.7709C165.902 30.2727 165.073 30.494 163.977 30.435C162.881 30.376 161.8 30.376 160.734 30.435C161.119 30.3169 161.519 30.1251 161.934 29.8594C162.763 29.3281 163.222 28.0736 163.311 26.096C163.281 25.24 163.281 24.3249 163.311 23.3509C163.34 22.3768 163.355 21.7865 163.355 21.5798C163.888 21.9931 164.481 22.5392 165.132 23.2181C166.998 25.2843 168.894 27.0553 170.819 28.5311C172.774 29.9775 174.951 31.0991 177.35 31.8961C178.713 32.3979 179.498 32.516 179.705 32.2503C179.942 31.9551 180.164 31.6304 180.371 31.2762C180.49 31.0696 180.845 31.0401 181.438 31.1877C182.03 31.3353 182.415 31.3648 182.593 31.2762C182.771 31.1582 183.378 31.2615 184.414 31.5862C184.829 31.7042 185.199 31.4681 185.525 30.8778C185.851 30.2874 185.54 29.8004 184.592 29.4167C183.674 29.0034 183.096 28.664 182.859 28.3983C182.652 28.1031 181.689 27.6309 179.972 26.9815C178.283 26.3321 176.358 25.4023 174.196 24.1921C172.034 22.9819 170.005 21.5208 168.109 19.8088C167.576 19.3365 167.072 18.9233 166.599 18.5691C168.85 18.0378 170.553 17.7131 171.708 17.595C172.863 17.4474 173.589 17.1228 173.885 16.621C174.151 16.0897 174.196 15.6174 174.018 15.2041C173.485 14.053 172.582 13.2265 171.308 12.7247C170.982 12.5771 170.39 12.6214 169.531 12.8575C168.672 13.0641 167.798 13.2412 166.91 13.3888C166.021 13.5364 164.999 13.7578 163.844 14.053C164.022 13.0199 163.977 12.0458 163.711 11.1308C165.488 11.0717 167.102 10.8651 168.553 10.5109C169.057 10.4814 169.442 10.3781 169.709 10.201C170.123 9.9058 170.182 9.28594 169.886 8.34139C169.62 7.39684 169.116 6.73271 168.376 6.34898C167.665 5.96526 167.087 5.89147 166.643 6.1276C165.162 6.74747 163.015 7.35257 160.201 7.94291C157.417 8.50374 155.003 9.02029 152.959 9.49256C151.271 10.201 150.486 10.8651 150.604 11.485C150.723 11.9868 151.863 12.1344 154.025 11.9277C155.773 11.603 157.402 11.3964 158.912 11.3079C158.853 11.8392 158.749 13.0346 158.601 14.8942C156.528 15.2189 154.958 15.5288 153.892 15.824C151.611 16.3258 149.997 16.7095 149.049 16.9752C148.22 17.1523 147.805 17.6098 147.805 18.3477C147.805 19.0856 147.953 19.617 148.249 19.9416L148.871 20.6943C149.375 21.3142 149.834 21.7422 150.249 21.9783C151.256 22.4506 152.041 22.5539 152.603 22.2883C153.166 22.0226 153.803 21.8012 154.514 21.6241L147.716 29.3281C146.028 31.0991 144.74 32.5455 143.851 33.6671L141.452 36.5893C140.089 38.4784 139.527 39.5411 139.764 39.7772C139.971 40.0133 140.297 39.9691 140.741 39.6444C141.185 39.2902 141.585 39.1131 141.941 39.1131C142.296 39.1131 142.548 39.0097 142.696 38.8031C142.844 38.567 143.036 38.4194 143.273 38.3604C143.51 38.3013 143.895 38.0062 144.429 37.4749C147.065 34.7298 148.946 32.8702 150.071 31.8961C151.226 30.922 152.5 29.6085 153.892 27.9556C155.314 26.2731 156.78 24.7972 158.29 23.528C158.29 24.3545 158.305 25.2547 158.335 26.2288ZM165.355 45.533C165.236 45.415 165.118 45.2379 164.999 45.0017C164.91 44.8541 164.821 44.7508 164.733 44.6918C164.644 44.6033 164.525 44.4704 164.377 44.2933C164.229 44.1162 164.036 44.0572 163.8 44.1162C159.919 44.5885 157.668 44.9575 157.046 45.2231C156.721 44.3376 156.543 43.5701 156.513 42.9208C156.484 42.2714 156.454 41.8139 156.424 41.5482H156.646C158.305 41.3416 159.682 41.135 160.778 40.9284L163.266 40.3971C163.503 40.3675 163.637 40.2495 163.666 40.0428C163.696 39.8067 163.755 39.6296 163.844 39.5115C163.962 39.364 164.022 39.2164 164.022 39.0688C164.022 38.8917 164.036 38.7146 164.066 38.5375C164.125 38.3308 164.096 38.1685 163.977 38.0504L163.622 37.6077C163.563 37.5191 163.489 37.4306 163.4 37.342L163 37.0321C162.881 36.8845 162.718 36.8255 162.511 36.855C160.171 37.1502 158.646 37.3863 157.935 37.5634C157.254 37.711 156.721 37.8291 156.335 37.9176C156.335 37.2682 156.41 36.3237 156.558 35.084C158.039 34.6412 159.283 34.2132 160.29 33.8C161.297 33.3867 162.763 32.9882 164.688 32.6045C165.162 32.4864 165.532 32.516 165.799 32.6931C166.065 32.8702 166.213 33.4458 166.243 34.4198C166.273 35.3644 166.288 36.5893 166.288 38.0947C166.288 39.6001 166.228 41.2383 166.11 43.0093C165.962 44.1015 165.71 44.9427 165.355 45.533Z" fill="url(#paint3_linear_1506_616)"/>
<defs>
<linearGradient id="paint0_linear_1506_616" x1="95.1752" y1="4.6665" x2="95.1752" y2="51.3332" gradientUnits="userSpaceOnUse">
<stop stop-color="#A2BE95"/>
<stop offset="1" stop-color="#003416"/>
</linearGradient>
<linearGradient id="paint1_linear_1506_616" x1="95.1752" y1="4.6665" x2="95.1752" y2="51.3332" gradientUnits="userSpaceOnUse">
<stop stop-color="#A2BE95"/>
<stop offset="1" stop-color="#003416"/>
</linearGradient>
<linearGradient id="paint2_linear_1506_616" x1="95.1752" y1="4.6665" x2="95.1752" y2="51.3332" gradientUnits="userSpaceOnUse">
<stop stop-color="#A2BE95"/>
<stop offset="1" stop-color="#003416"/>
</linearGradient>
<linearGradient id="paint3_linear_1506_616" x1="95.1752" y1="4.6665" x2="95.1752" y2="51.3332" gradientUnits="userSpaceOnUse">
<stop stop-color="#A2BE95"/>
<stop offset="1" stop-color="#003416"/>
</linearGradient>
</defs>
</svg>
