<svg width="24" height="24" viewBox="0 0 24 24" fill="none" xmlns="http://www.w3.org/2000/svg">
<path d="M15.0914 12.9C15.7662 12.9 16.36 12.531 16.666 11.973L19.8871 6.132C19.9629 5.99558 20.0018 5.84172 19.9999 5.68565C19.9981 5.52957 19.9555 5.37669 19.8764 5.24214C19.7973 5.10758 19.6845 4.996 19.5491 4.91846C19.4137 4.84091 19.2603 4.80008 19.1043 4.8H5.78796L4.94219 3H2V4.8H3.7995L7.03861 11.631L5.82395 13.827C5.16713 15.033 6.03089 16.5 7.39851 16.5H18.1955V14.7H7.39851L8.38824 12.9H15.0914ZM6.64272 6.6H17.5747L15.0914 11.1H8.77513L6.64272 6.6ZM7.39851 17.4C6.40879 17.4 5.60801 18.21 5.60801 19.2C5.60801 20.19 6.40879 21 7.39851 21C8.38824 21 9.19802 20.19 9.19802 19.2C9.19802 18.21 8.38824 17.4 7.39851 17.4ZM16.396 17.4C15.4063 17.4 14.6055 18.21 14.6055 19.2C14.6055 20.19 15.4063 21 16.396 21C17.3858 21 18.1955 20.19 18.1955 19.2C18.1955 18.21 17.3858 17.4 16.396 17.4Z" fill="#639D87"/>
</svg>
