<svg width="24" height="24" viewBox="0 0 24 24" fill="none" xmlns="http://www.w3.org/2000/svg">
<path fill-rule="evenodd" clip-rule="evenodd" d="M12 4C10.3431 4 9 5.34314 9 7C9 8.65686 10.3431 10 12 10C13.6568 10 15 8.65685 15 7C15 5.34315 13.6568 4 12 4ZM7 7C7 4.23858 9.23857 2 12 2C14.7614 2 17 4.23857 17 7C17 9.76143 14.7614 12 12 12C9.23857 12 7 9.76143 7 7ZM10 15C7.23858 15 5 17.2386 5 20V21C5 21.5523 4.55228 22 4 22C3.44772 22 3 21.5523 3 21V20C3 16.134 6.134 13 10 13H14C17.866 13 21 16.134 21 20V21C21 21.5523 20.5523 22 20 22C19.4477 22 19 21.5523 19 21V20C19 17.2386 16.7614 15 14 15H10Z" fill="#639D87"/>
</svg>
