<svg xmlns="http://www.w3.org/2000/svg" version="1.1" xmlns:xlink="http://www.w3.org/1999/xlink" xmlns:svgjs="http://svgjs.com/svgjs" width="64" height="64" x="0" y="0" viewBox="0 0 64 64" style="enable-background:new 0 0 512 512" xml:space="preserve" class=""><g><path d="M55.34 23.42a.997.997 0 0 0-.91-1.42h-4.54c1.31 2.21 2.23 4.67 2.72 7.27zM45.92 47C49.04 43.56 51 38.79 51 33.5c0-5.82-2.35-11.02-6.03-14.5H21.03c-.65.61-1.23 1.29-1.79 2H15c-3.86 0-7 3.14-7 7v2c0 2.44.81 4.7 2.16 6.52.3-.76.66-1.45 1.04-2.07A8.88 8.88 0 0 1 9.99 30v-2c0-2.76 2.24-5 5-5h2.86c-1.31 2.2-2.23 4.72-2.63 7.44l1.11.99c.12.11 2.37 2.15 3.52 5.12 1.63-.49 3.13-.56 3.86-.56h.39l1.78.1.11 1.78c.01.21.25 5.19-2.83 8.27-.32.32-.66.59-1 .84H4v2c0 1.1.9 2 2 2h2v4h6v-4h36v4h6v-4h2c1.1 0 2-.9 2-2v-2H45.92z" fill="#000000" data-original="#000000" class=""></path><path d="M15 39.83c.25-.35.52-.68.83-1 .66-.66 1.4-1.16 2.16-1.55-.98-2.56-2.99-4.37-2.99-4.37s-2.01 1.8-2.99 4.37c.76.39 1.5.89 2.16 1.55.31.31.59.65.83 1z" fill="#000000" data-original="#000000" class=""></path><path d="M15 46.99s4.26.24 6.75-2.25c2.48-2.48 2.25-6.75 2.25-6.75s-4.26-.24-6.75 2.25c-1.91 1.91-2.21 4.85-2.25 6.12-.04-1.27-.34-4.22-2.25-6.12C10.27 37.76 6 37.99 6 37.99s-.24 4.26 2.25 6.75c2.48 2.48 6.75 2.25 6.75 2.25zM45 16c0-1.1-.9-2-2-2h-7v-2c0-1.66-1.34-3-3-3s-3 1.34-3 3v2h-7c-1.1 0-2 .9-2 2v1h24z" fill="#000000" data-original="#000000" class=""></path></g></svg>